<svg width="16px" height="16px" viewBox="0 0 13 15" fill="none" xmlns="http://www.w3.org/2000/svg">
<g clip-path="url(#clip0_3_88)">
<path d="M12.5954 1.81875C12.6713 1.90662 12.7139 2.02562 12.7139 2.14969C12.7139 2.27376 12.6713 2.39276 12.5954 2.48063L11.7479 3.45938L10.123 1.58438L10.9704 0.605627C11.0466 0.51775 11.1499 0.468384 11.2576 0.468384C11.3653 0.468384 11.4686 0.51775 11.5448 0.605627L12.5954 1.81781V1.81875ZM11.1735 4.12125L9.54851 2.24625L4.01295 8.63438C3.96823 8.68596 3.93457 8.74888 3.91464 8.81813L3.26058 11.0813C3.24871 11.1225 3.24703 11.1668 3.25571 11.2091C3.26439 11.2514 3.2831 11.29 3.30974 11.3208C3.33638 11.3515 3.3699 11.3731 3.40656 11.3831C3.44322 11.3931 3.48157 11.3912 3.51733 11.3775L5.4787 10.6228C5.53863 10.6001 5.59316 10.5616 5.63795 10.5103L11.1735 4.12125Z" fill="black"/>
<path fill-rule="evenodd" clip-rule="evenodd" d="M0.8125 12.6562C0.8125 13.0292 0.940904 13.3869 1.16946 13.6506C1.39802 13.9143 1.70802 14.0625 2.03125 14.0625H10.9688C11.292 14.0625 11.602 13.9143 11.8305 13.6506C12.0591 13.3869 12.1875 13.0292 12.1875 12.6562V7.03125C12.1875 6.90693 12.1447 6.7877 12.0685 6.69979C11.9923 6.61189 11.889 6.5625 11.7812 6.5625C11.6735 6.5625 11.5702 6.61189 11.494 6.69979C11.4178 6.7877 11.375 6.90693 11.375 7.03125V12.6562C11.375 12.7806 11.3322 12.8998 11.256 12.9877C11.1798 13.0756 11.0765 13.125 10.9688 13.125H2.03125C1.92351 13.125 1.82017 13.0756 1.74399 12.9877C1.6678 12.8998 1.625 12.7806 1.625 12.6562V2.34375C1.625 2.21943 1.6678 2.1002 1.74399 2.01229C1.82017 1.92439 1.92351 1.875 2.03125 1.875H7.3125C7.42024 1.875 7.52358 1.82561 7.59976 1.73771C7.67595 1.6498 7.71875 1.53057 7.71875 1.40625C7.71875 1.28193 7.67595 1.1627 7.59976 1.07479C7.52358 0.986886 7.42024 0.9375 7.3125 0.9375H2.03125C1.70802 0.9375 1.39802 1.08566 1.16946 1.34938C0.940904 1.6131 0.8125 1.97079 0.8125 2.34375V12.6562Z" fill="black"/>
</g>
<defs>
<clipPath id="clip0_3_88">
<rect width="16px" height="16px" fill="white"/>
</clipPath>
</defs>
</svg>
