<?xml version="1.0" encoding="UTF-8" standalone="no"?>
<svg
   width="321.12573"
   height="349.70377"
   viewBox="0 0 321.12573 349.70377"
   fill="none"
   version="1.1"
   id="svg11"
   sodipodi:docname="stopwatch.svg"
   xmlns:inkscape="http://www.inkscape.org/namespaces/inkscape"
   xmlns:sodipodi="http://sodipodi.sourceforge.net/DTD/sodipodi-0.dtd"
   xmlns="http://www.w3.org/2000/svg"
   xmlns:svg="http://www.w3.org/2000/svg">
  <sodipodi:namedview
     id="namedview13"
     pagecolor="#ffffff"
     bordercolor="#000000"
     borderopacity="0.25"
     inkscape:showpageshadow="2"
     inkscape:pageopacity="0.0"
     inkscape:pagecheckerboard="0"
     inkscape:deskcolor="#d1d1d1"
     showgrid="false" />
  <path
     d="m 126.176,11.2812 c 0,-2.9919 1.208,-5.8614 3.359,-7.977 C 131.686,1.1886 134.603,0 137.645,0 h 45.875 c 3.041,0 5.959,1.1886 8.109,3.3042 2.151,2.1156 3.36,4.9851 3.36,7.977 0,2.992 -1.209,5.8615 -3.36,7.9771 -2.15,2.1156 -5.068,3.3042 -8.109,3.3042 v 12.8606 c 31.195,4.4223 59.5,17.5988 82.208,37.0025 0.09,-0.0989 0.182,-0.1966 0.275,-0.2933 l 8.12,-7.9871 -8.12,-7.9646 c -2.154,-2.1153 -3.365,-4.9855 -3.367,-7.9791 -0.002,-2.9937 1.205,-5.8655 3.356,-7.9838 2.15,-2.1184 5.068,-3.3096 8.111,-3.3117 3.044,-0.0021 5.963,1.1851 8.117,3.3004 l 32.433,31.9259 c 1.096,1.0407 1.97,2.2855 2.571,3.6619 0.601,1.3763 0.917,2.8566 0.93,4.3546 0.014,1.4979 -0.277,2.9834 -0.853,4.3698 -0.577,1.3864 -1.429,2.646 -2.505,3.7052 -1.077,1.0592 -2.358,1.8972 -3.767,2.4642 -1.41,0.567 -2.92,0.853 -4.443,0.84 -1.522,-0.013 -3.027,-0.325 -4.427,-0.916 -1.399,-0.591 -2.664,-1.451 -3.722,-2.528 l -8.097,-7.9871 -8.12,7.9871 c -0.098,0.0919 -0.197,0.1822 -0.298,0.2707 23.354,26.5193 37.067,59.9323 38.974,94.9673 1.907,35.036 -8.101,69.698 -28.443,98.518 -20.343,28.821 -49.862,50.157 -83.9,60.644 -34.038,10.487 -70.658,9.526 -104.079,-2.73 C 71.0523,327.497 42.7311,304.643 23.9793,274.797 5.2274395,244.952 -2.8873805,209.814 0.91529654,174.928 4.7179795,140.043 20.2216,107.396 44.9799,82.1389 69.7381,56.8822 102.341,40.4536 137.645,35.4457 V 22.5625 c -3.042,0 -5.959,-1.1886 -8.11,-3.3042 -2.151,-2.1156 -3.359,-4.9851 -3.359,-7.9771 z m 34.406,45.125 C 142.509,56.4077 124.613,59.9108 107.916,66.7154 91.2195,73.52 76.0487,83.4929 63.2701,96.065 c -25.8076,25.39 -40.3044,59.824 -40.3014,95.728 0.0031,35.903 14.5057,70.335 40.3176,95.721 25.8118,25.385 60.8187,39.645 97.3187,39.642 36.501,-0.003 71.505,-14.268 97.312,-39.658 25.808,-25.39 40.305,-59.824 40.302,-95.728 C 298.216,155.866 283.713,121.434 257.901,96.049 232.089,70.6631 197.083,56.4033 160.582,56.4062 Z"
     fill="url(#paint0_linear_2_48)"
     id="path2"
     style="fill:url(#paint0_linear_2_48)" />
  <defs
     id="defs9">
    <linearGradient
       id="paint0_linear_2_48"
       x1="160.563"
       y1="11"
       x2="160.563"
       y2="360.70401"
       gradientUnits="userSpaceOnUse"
       gradientTransform="translate(-4.6423012e-7,-11)">
      <stop
         stop-color="#4E1040"
         id="stop4" />
      <stop
         offset="1"
         stop-color="#A21082"
         stop-opacity="0.79"
         id="stop6" />
    </linearGradient>
  </defs>
</svg>
